<svg width="191" height="67" viewBox="0 0 191 67" fill="none" xmlns="http://www.w3.org/2000/svg">
<g opacity="0.45">
<path opacity="0.45" fill-rule="evenodd" clip-rule="evenodd" d="M9.67714 9.47397C9.74903 9.03045 10.1633 8.7357 10.6025 8.81564L10.7343 8.83964C11.1735 8.91958 11.4712 9.34393 11.3993 9.78745C11.3274 10.231 10.9131 10.5257 10.474 10.4458L10.3421 10.4218C9.90297 10.3418 9.60525 9.91749 9.67714 9.47397ZM15.0825 10.4579C15.1544 10.0144 15.5687 9.71964 16.0078 9.79958L16.2715 9.84757C16.7107 9.92751 17.0084 10.3519 16.9365 10.7954C16.8646 11.2389 16.4503 11.5336 16.0112 11.4537L15.7475 11.4057C15.3083 11.3258 15.0106 10.9014 15.0825 10.4579ZM20.6197 11.4658C20.6916 11.0223 21.1059 10.7276 21.5451 10.8075L21.8087 10.8555C22.2479 10.9354 22.5456 11.3598 22.4737 11.8033C22.4018 12.2468 21.9875 12.5416 21.5484 12.4616L21.2847 12.4136C20.8456 12.3337 20.5478 11.9094 20.6197 11.4658ZM26.1569 12.4738C26.2288 12.0302 26.6431 11.7355 27.0823 11.8154L27.346 11.8634C27.7851 11.9434 28.0828 12.3677 28.0109 12.8112C27.9391 13.2548 27.5248 13.5495 27.0856 13.4696L26.8219 13.4216C26.3828 13.3416 26.085 12.9173 26.1569 12.4738ZM31.6942 13.4817C31.766 13.0382 32.1803 12.7434 32.6195 12.8234L32.8832 12.8714C33.3223 12.9513 33.62 13.3757 33.5482 13.8192C33.4763 14.2627 33.062 14.5574 32.6228 14.4775L32.3591 14.4295C31.92 14.3496 31.6223 13.9252 31.6942 13.4817ZM37.2314 14.4896C37.3033 14.0461 37.7175 13.7514 38.1567 13.8313L38.4204 13.8793C38.8595 13.9592 39.1573 14.3836 39.0854 14.8271C39.0135 15.2706 38.5992 15.5654 38.16 15.4854L37.8964 15.4374C37.4572 15.3575 37.1595 14.9331 37.2314 14.4896ZM42.7686 15.4976C42.8405 15.054 43.2548 14.7593 43.6939 14.8392L43.9576 14.8872C44.3967 14.9672 44.6945 15.3915 44.6226 15.835C44.5507 16.2786 44.1364 16.5733 43.6972 16.4934L43.4336 16.4454C42.9944 16.3654 42.6967 15.9411 42.7686 15.4976ZM48.3058 16.5055C48.3777 16.062 48.792 15.7672 49.2311 15.8472L49.4948 15.8952C49.934 15.9751 50.2317 16.3994 50.1598 16.843C50.0879 17.2865 49.6736 17.5812 49.2345 17.5013L48.9708 17.4533C48.5316 17.3734 48.2339 16.949 48.3058 16.5055ZM53.843 17.5134C53.9149 17.0699 54.3292 16.7752 54.7683 16.8551L55.032 16.9031C55.4712 16.983 55.7689 17.4074 55.697 17.8509C55.6251 18.2944 55.2108 18.5892 54.7717 18.5092L54.508 18.4612C54.0688 18.3813 53.7711 17.9569 53.843 17.5134ZM59.3802 18.5214C59.4521 18.0778 59.8664 17.7831 60.3056 17.863L60.4374 17.887C60.8765 17.967 61.1743 18.3913 61.1024 18.8348C61.0305 19.2784 60.6162 19.5731 60.177 19.4932L60.0452 19.4692C59.6061 19.3892 59.3083 18.9649 59.3802 18.5214Z" fill="white"/>
</g>
<g opacity="0.45">
<path opacity="0.45" fill-rule="evenodd" clip-rule="evenodd" d="M9.78622 7.50307C9.81321 7.05316 10.1955 6.71293 10.6401 6.74315L10.7488 6.75054C11.1934 6.78075 11.5319 7.16997 11.5049 7.61988C11.478 8.06979 11.0957 8.41001 10.6511 8.37979L10.5424 8.37241C10.0978 8.34219 9.75924 7.95297 9.78622 7.50307ZM14.2424 7.80592C14.2694 7.35602 14.6517 7.0158 15.0963 7.04602L15.3137 7.06079C15.7583 7.09101 16.0968 7.48023 16.0698 7.93012C16.0428 8.38004 15.6605 8.72027 15.2159 8.69005L14.9986 8.67528C14.554 8.64506 14.2154 8.25584 14.2424 7.80592ZM18.8073 8.11616C18.8343 7.66628 19.2166 7.32605 19.6612 7.35627L19.8785 7.37105C20.3231 7.40126 20.6617 7.79048 20.6347 8.24036C20.6077 8.6903 20.2254 9.03052 19.7808 9.0003L19.5634 8.98553C19.1188 8.95531 18.7803 8.56609 18.8073 8.11616ZM23.3722 8.42641C23.3991 7.97653 23.7814 7.63631 24.226 7.66653L24.4434 7.6813C24.888 7.71152 25.2266 8.10074 25.1996 8.5506C25.1726 9.00055 24.7903 9.34078 24.3457 9.31056L24.1283 9.29579C23.6837 9.26557 23.3452 8.87635 23.3722 8.42641ZM27.937 8.73665C27.964 8.28679 28.3463 7.94656 28.7909 7.97678L29.0083 7.99156C29.4529 8.02177 29.7914 8.41099 29.7644 8.86084C29.7375 9.31081 29.3552 9.65103 28.9106 9.62081L28.6932 9.60604C28.2486 9.57582 27.91 9.1866 27.937 8.73665ZM32.5019 9.04689C32.5289 8.59705 32.9112 8.25682 33.3558 8.28704L33.5732 8.30181C34.0178 8.33203 34.3563 8.72125 34.3293 9.17109C34.3023 9.62106 33.92 9.96129 33.4754 9.93107L33.2581 9.9163C32.8135 9.88608 32.4749 9.49686 32.5019 9.04689ZM37.0668 9.35713C37.0938 8.9073 37.4761 8.56707 37.9207 8.59729L38.138 8.61207C38.5826 8.64228 38.9212 9.0315 38.8942 9.48133C38.8672 9.93132 38.4849 10.2715 38.0403 10.2413L37.8229 10.2266C37.3783 10.1963 37.0398 9.80711 37.0668 9.35713ZM41.6317 9.66737C41.6586 9.21756 42.0409 8.87733 42.4855 8.90755L42.7029 8.92232C43.1475 8.95254 43.4861 9.34176 43.4591 9.79157C43.4321 10.2416 43.0498 10.5818 42.6052 10.5516L42.3878 10.5368C41.9432 10.5066 41.6047 10.1174 41.6317 9.66737ZM46.1965 9.97762C46.2235 9.52781 46.6058 9.18758 47.0504 9.2178L47.2678 9.23258C47.7124 9.26279 48.0509 9.65201 48.0239 10.1018C47.997 10.5518 47.6147 10.8921 47.1701 10.8618L46.9527 10.8471C46.5081 10.8168 46.1695 10.4276 46.1965 9.97762ZM50.7614 10.2879C50.7884 9.83807 51.1707 9.49784 51.6153 9.52806L51.8327 9.54283C52.2773 9.57305 52.6158 9.96227 52.5888 10.4121C52.5618 10.8621 52.1795 11.2023 51.7349 11.1721L51.5176 11.1573C51.073 11.1271 50.7344 10.7379 50.7614 10.2879ZM55.3263 10.5981C55.3533 10.1483 55.7356 9.80809 56.1802 9.83831L56.3975 9.85309C56.8421 9.8833 57.1807 10.2725 57.1537 10.7223C57.1267 11.1723 56.7444 11.5126 56.2998 11.4823L56.0824 11.4676C55.6378 11.4374 55.2993 11.0481 55.3263 10.5981ZM59.8912 10.9083C59.9181 10.4586 60.3004 10.1183 60.745 10.1486L60.9624 10.1633C61.407 10.1936 61.7455 10.5828 61.7186 11.0325C61.6916 11.4826 61.3093 11.8228 60.8647 11.7926L60.6473 11.7778C60.2027 11.7476 59.8642 11.3584 59.8912 10.9083ZM64.456 11.2186C64.483 10.7688 64.8653 10.4286 65.3099 10.4588L65.5273 10.4736C65.9719 10.5038 66.3104 10.893 66.2835 11.3428C66.2565 11.7928 65.8742 12.1331 65.4296 12.1029L65.2122 12.0881C64.7676 12.0579 64.4291 11.6686 64.456 11.2186ZM69.0209 11.5288C69.0479 11.0791 69.4302 10.7389 69.8748 10.7691L70.0922 10.7839C70.5368 10.8141 70.8753 11.2033 70.8483 11.653C70.8213 12.1031 70.439 12.4433 69.9944 12.4131L69.7771 12.3983C69.3325 12.3681 68.9939 11.9789 69.0209 11.5288ZM73.5858 11.8391C73.6128 11.3893 73.9951 11.0491 74.4397 11.0793L74.657 11.0941C75.1016 11.1243 75.4402 11.5135 75.4132 11.9633C75.3862 12.4134 75.0039 12.7536 74.5593 12.7234L74.3419 12.7086C73.8973 12.6784 73.5588 12.2892 73.5858 11.8391ZM78.1507 12.1493C78.1776 11.6996 78.5599 11.3594 79.0045 11.3896L79.2219 11.4044C79.6665 11.4346 80.0051 11.8238 79.9781 12.2735C79.9511 12.7236 79.5688 13.0638 79.1242 13.0336L78.9068 13.0188C78.4622 12.9886 78.1237 12.5994 78.1507 12.1493ZM82.7155 12.4596C82.7425 12.0099 83.1248 11.6696 83.5694 11.6998L83.7868 11.7146C84.2314 11.7448 84.5699 12.1341 84.543 12.5838C84.516 13.0339 84.1337 13.3741 83.6891 13.3439L83.4717 13.3291C83.0271 13.2989 82.6885 12.9097 82.7155 12.4596ZM87.2804 12.7698C87.3074 12.3201 87.6897 11.9799 88.1343 12.0101L88.3517 12.0249C88.7963 12.0551 89.1348 12.4443 89.1078 12.894C89.0808 13.3441 88.6985 13.6843 88.2539 13.6541L88.0366 13.6394C87.592 13.6091 87.2534 13.2199 87.2804 12.7698ZM91.8453 13.08C91.8723 12.6304 92.2546 12.2901 92.6992 12.3204L92.8079 12.3277C93.2525 12.358 93.591 12.7472 93.564 13.1968C93.537 13.647 93.1547 13.9872 92.7101 13.957L92.6014 13.9496C92.1568 13.9194 91.8183 13.5302 91.8453 13.08Z" fill="white"/>
</g>
<g opacity="0.45">
<path opacity="0.45" fill-rule="evenodd" clip-rule="evenodd" d="M49.3138 57.9186C49.1478 57.4997 49.3466 57.0129 49.7579 56.8313L49.8679 56.7827C50.2792 56.601 50.7472 56.7934 50.9132 57.2122C51.0792 57.6311 50.8804 58.1179 50.4691 58.2995L50.3591 58.3481C49.9478 58.5298 49.4799 58.3374 49.3138 57.9186ZM53.8252 55.9261C53.6592 55.5072 53.858 55.0204 54.2693 54.8388L54.4894 54.7416C54.9006 54.5599 55.3686 54.7523 55.5346 55.1711C55.7006 55.59 55.5018 56.0768 55.0905 56.2584L54.8705 56.3556C54.4592 56.5373 53.9912 56.3449 53.8252 55.9261ZM58.4467 53.885C58.2806 53.4661 58.4795 52.9793 58.8907 52.7977L59.1108 52.7005C59.522 52.5188 59.99 52.7111 60.156 53.13C60.322 53.5489 60.1232 54.0357 59.712 54.2173L59.4919 54.3145C59.0806 54.4962 58.6127 54.3038 58.4467 53.885ZM63.0681 51.8439C62.9021 51.425 63.1009 50.9382 63.5121 50.7566L63.7322 50.6594C64.1435 50.4777 64.6114 50.67 64.7775 51.0889C64.9435 51.5078 64.7447 51.9946 64.3334 52.1762L64.1133 52.2734C63.7021 52.455 63.2341 52.2627 63.0681 51.8439ZM67.6895 49.8028C67.5235 49.3839 67.7223 48.8971 68.1336 48.7155L68.3536 48.6183C68.7649 48.4366 69.2329 48.6289 69.3989 49.0478C69.5649 49.4667 69.3661 49.9535 68.9548 50.1351L68.7348 50.2323C68.3235 50.4139 67.8555 50.2216 67.6895 49.8028ZM72.3109 47.7617C72.1449 47.3428 72.3437 46.856 72.755 46.6744L72.9751 46.5772C73.3863 46.3955 73.8543 46.5878 74.0203 47.0067C74.1863 47.4256 73.9875 47.9124 73.5762 48.094L73.3562 48.1912C72.9449 48.3728 72.4769 48.1805 72.3109 47.7617ZM76.9324 45.7206C76.7663 45.3017 76.9652 44.8149 77.3764 44.6333L77.4864 44.5847C77.8977 44.403 78.3657 44.5953 78.5317 45.0142C78.6977 45.4331 78.4989 45.9199 78.0876 46.1015L77.9776 46.1501C77.5663 46.3318 77.0984 46.1394 76.9324 45.7206Z" fill="white"/>
</g>
<g opacity="0.45">
<path opacity="0.45" fill-rule="evenodd" clip-rule="evenodd" d="M95.2259 18.513C95.6164 18.7596 95.7478 19.2852 95.5194 19.687L95.472 19.7704C95.2436 20.1722 94.7418 20.298 94.3513 20.0514C93.9608 19.8048 93.8294 19.2792 94.0578 18.8775L94.1052 18.794C94.3336 18.3922 94.8354 18.2664 95.2259 18.513ZM93.2814 21.9334C93.6719 22.18 93.8033 22.7056 93.5749 23.1074L93.4801 23.2742C93.2516 23.676 92.7499 23.8018 92.3594 23.5553C91.9689 23.3087 91.8375 22.7831 92.0659 22.3813L92.1607 22.2144C92.3891 21.8127 92.8909 21.6868 93.2814 21.9334ZM91.2895 25.4373C91.68 25.6839 91.8114 26.2095 91.583 26.6112L91.4881 26.7781C91.2597 27.1799 90.758 27.3057 90.3675 27.0591C89.9769 26.8125 89.8455 26.2869 90.0739 25.8851L90.1688 25.7183C90.3972 25.3165 90.899 25.1907 91.2895 25.4373ZM89.2976 28.9411C89.6881 29.1877 89.8195 29.7133 89.5911 30.1151L89.4962 30.2819C89.2678 30.6837 88.7661 30.8095 88.3755 30.5629C87.985 30.3164 87.8536 29.7908 88.082 29.389L88.1769 29.2221C88.4053 28.8203 88.907 28.6945 89.2976 28.9411ZM87.3056 32.4449C87.6961 32.6915 87.8276 33.2171 87.5991 33.6189L87.5043 33.7858C87.2759 34.1875 86.7741 34.3134 86.3836 34.0668C85.9931 33.8202 85.8617 33.2946 86.0901 32.8928L86.185 32.726C86.4134 32.3242 86.9151 32.1984 87.3056 32.4449ZM85.3137 35.9488C85.7042 36.1954 85.8356 36.721 85.6072 37.1228L85.5124 37.2896C85.284 37.6914 84.7822 37.8172 84.3917 37.5706C84.0012 37.324 83.8698 36.7984 84.0982 36.3967L84.193 36.2298C84.4214 35.828 84.9232 35.7022 85.3137 35.9488ZM83.3218 39.4526C83.7123 39.6992 83.8437 40.2248 83.6153 40.6266L83.5679 40.71C83.3395 41.1118 82.8377 41.2376 82.4472 40.991C82.0567 40.7445 81.9253 40.2188 82.1537 39.8171L82.2011 39.7336C82.4295 39.3319 82.9313 39.206 83.3218 39.4526Z" fill="white"/>
</g>
<g opacity="0.45">
<path opacity="0.45" fill-rule="evenodd" clip-rule="evenodd" d="M9.49806 10.8626C9.67037 10.447 10.1411 10.2624 10.5495 10.4504L10.6537 10.4984C11.0621 10.6864 11.2535 11.1757 11.0812 11.5913C10.9088 12.007 10.4381 12.1916 10.0298 12.0036L9.92547 11.9556C9.51711 11.7676 9.32575 11.2783 9.49806 10.8626ZM13.7739 12.8309C13.9462 12.4152 14.417 12.2307 14.8253 12.4186L15.0339 12.5146C15.4423 12.7026 15.6336 13.1919 15.4613 13.6076C15.289 14.0232 14.8183 14.2078 14.4099 14.0198L14.2013 13.9238C13.793 13.7358 13.6016 13.2465 13.7739 12.8309ZM18.1541 14.8471C18.3264 14.4315 18.7971 14.2469 19.2055 14.4349L19.414 14.5309C19.8224 14.7189 20.0138 15.2082 19.8415 15.6238C19.6691 16.0395 19.1984 16.224 18.7901 16.0361L18.5815 15.9401C18.1731 15.7521 17.9818 15.2628 18.1541 14.8471ZM22.5342 16.8634C22.7065 16.4477 23.1773 16.2631 23.5856 16.4511L23.7942 16.5471C24.2026 16.7351 24.3939 17.2244 24.2216 17.6401C24.0493 18.0557 23.5786 18.2403 23.1702 18.0523L22.9616 17.9563C22.5533 17.7683 22.3619 17.279 22.5342 16.8634ZM26.9144 18.8796C27.0867 18.464 27.5574 18.2794 27.9658 18.4674L28.1744 18.5634C28.5827 18.7514 28.7741 19.2407 28.6018 19.6563C28.4294 20.072 27.9587 20.2565 27.5504 20.0686L27.3418 19.9726C26.9334 19.7846 26.7421 19.2952 26.9144 18.8796ZM31.2945 20.8958C31.4668 20.4802 31.9376 20.2956 32.3459 20.4836L32.5545 20.5796C32.9629 20.7676 33.1542 21.2569 32.9819 21.6726C32.8096 22.0882 32.3389 22.2728 31.9305 22.0848L31.7219 21.9888C31.3136 21.8008 31.1222 21.3115 31.2945 20.8958ZM35.6747 22.9121C35.847 22.4964 36.3177 22.3119 36.7261 22.4999L36.9346 22.5959C37.343 22.7838 37.5344 23.2732 37.3621 23.6888C37.1897 24.1045 36.719 24.289 36.3107 24.1011L36.1021 24.005C35.6937 23.8171 35.5024 23.3277 35.6747 22.9121ZM40.0548 24.9283C40.2271 24.5127 40.6979 24.3281 41.1062 24.5161L41.3148 24.6121C41.7232 24.8001 41.9145 25.2894 41.7422 25.7051C41.5699 26.1207 41.0992 26.3053 40.6908 26.1173L40.4822 26.0213C40.0739 25.8333 39.8825 25.344 40.0548 24.9283ZM44.435 26.9446C44.6073 26.5289 45.078 26.3444 45.4864 26.5323L45.6949 26.6284C46.1033 26.8163 46.2947 27.3057 46.1224 27.7213C45.95 28.137 45.4793 28.3215 45.071 28.1335L44.8624 28.0375C44.454 27.8496 44.2627 27.3602 44.435 26.9446ZM48.8151 28.9608C48.9874 28.5452 49.4582 28.3606 49.8665 28.5486L50.0751 28.6446C50.4835 28.8326 50.6748 29.3219 50.5025 29.7376C50.3302 30.1532 49.8595 30.3378 49.4511 30.1498L49.2425 30.0538C48.8342 29.8658 48.6428 29.3765 48.8151 28.9608ZM53.1953 30.9771C53.3676 30.5614 53.8383 30.3769 54.2467 30.5648L54.4552 30.6609C54.8636 30.8488 55.055 31.3382 54.8827 31.7538C54.7103 32.1694 54.2396 32.354 53.8313 32.166L53.6227 32.07C53.2143 31.8821 53.023 31.3927 53.1953 30.9771ZM57.5754 32.9933C57.7477 32.5777 58.2185 32.3931 58.6268 32.5811L58.8354 32.6771C59.2438 32.8651 59.4351 33.3544 59.2628 33.77C59.0905 34.1857 58.6198 34.3703 58.2114 34.1823L58.0028 34.0863C57.5945 33.8983 57.4031 33.409 57.5754 32.9933ZM61.9556 35.0096C62.1279 34.5939 62.5986 34.4094 63.007 34.5973L63.2155 34.6933C63.6239 34.8813 63.8153 35.3706 63.6429 35.7863C63.4706 36.2019 62.9999 36.3865 62.5916 36.1985L62.383 36.1025C61.9746 35.9145 61.7833 35.4252 61.9556 35.0096ZM66.3357 37.0258C66.508 36.6102 66.9788 36.4256 67.3871 36.6136L67.5957 36.7096C68.0041 36.8976 68.1954 37.3869 68.0231 37.8025C67.8508 38.2182 67.3801 38.4027 66.9717 38.2148L66.7631 38.1188C66.3548 37.9308 66.1634 37.4415 66.3357 37.0258ZM70.7159 39.0421C70.8882 38.6264 71.3589 38.4418 71.7673 38.6298L71.9758 38.7258C72.3842 38.9138 72.5756 39.4031 72.4033 39.8188C72.2309 40.2344 71.7602 40.419 71.3519 40.231L71.1433 40.135C70.7349 39.947 70.5436 39.4577 70.7159 39.0421ZM75.096 41.0583C75.2683 40.6427 75.7391 40.4581 76.1474 40.6461L76.2517 40.6941C76.6601 40.8821 76.8514 41.3714 76.6791 41.787C76.5068 42.2027 76.0361 42.3872 75.6277 42.1993L75.5234 42.1513C75.1151 41.9633 74.9237 41.4739 75.096 41.0583Z" fill="white"/>
</g>
<path fill-rule="evenodd" clip-rule="evenodd" d="M47.9249 54.6773C47.5233 54.4743 47.3542 53.9672 47.547 53.5446L61.6051 22.7439C61.798 22.3213 62.2798 22.1433 62.6814 22.3462C63.083 22.5492 63.2521 23.0563 63.0593 23.4789L49.0012 54.2797C48.8083 54.7022 48.3265 54.8803 47.9249 54.6773Z" fill="white"/>
<path fill-rule="evenodd" clip-rule="evenodd" d="M78.0178 40.6523C77.6581 40.9288 77.1534 40.8461 76.8907 40.4675L65.0221 23.3696C64.7594 22.9911 64.838 22.46 65.1977 22.1835C65.5574 21.9069 66.062 21.9896 66.3248 22.3682L78.1933 39.4661C78.4561 39.8447 78.3775 40.3757 78.0178 40.6523Z" fill="white"/>
<path fill-rule="evenodd" clip-rule="evenodd" d="M93.3305 15.9567C93.364 16.4242 93.0311 16.8318 92.5869 16.8671L67.4631 18.8648C67.0188 18.9001 66.6315 18.5498 66.598 18.0823C66.5644 17.6148 66.8973 17.2073 67.3415 17.1719L92.4654 15.1743C92.9096 15.1389 93.2969 15.4893 93.3305 15.9567Z" fill="white"/>
<path fill-rule="evenodd" clip-rule="evenodd" d="M7.65258 12.0351C7.9925 11.7321 8.50148 11.7764 8.7894 12.1342L43.2431 54.9399C43.531 55.2976 43.4889 55.8332 43.149 56.1362C42.809 56.4392 42.3001 56.3948 42.0121 56.0371L7.55842 13.2314C7.2705 12.8737 7.31265 12.3381 7.65258 12.0351Z" fill="white"/>
<path d="M6.26562 11.9379C4.79874 11.9379 3.60911 10.6865 3.60911 9.14187C3.60911 7.59796 4.79874 6.34604 6.26562 6.34604C7.73296 6.34604 8.92213 7.59796 8.92213 9.14187C8.92213 10.6865 7.73296 11.9379 6.26562 11.9379ZM6.26562 4.84117C4.00827 4.84117 2.17865 6.76731 2.17865 9.14187C2.17865 11.5179 4.00827 13.4438 6.26562 13.4438C8.52297 13.4438 10.3526 11.5179 10.3526 9.14187C10.3526 6.76731 8.52297 4.84117 6.26562 4.84117Z" fill="white"/>
<path fill-rule="evenodd" clip-rule="evenodd" d="M6.26562 13.3225C4.07193 13.3225 2.29388 11.451 2.29388 9.14187C2.29388 6.83427 4.07191 4.96243 6.26562 4.96243C8.45932 4.96243 10.2374 6.83427 10.2374 9.14187C10.2374 11.451 8.4593 13.3225 6.26562 13.3225ZM2.06342 9.14187C2.06342 11.5848 3.9446 13.5651 6.26562 13.5651C8.58663 13.5651 10.4678 11.5848 10.4678 9.14187C10.4678 6.70034 8.58662 4.7199 6.26562 4.7199C3.94462 4.7199 2.06342 6.70034 2.06342 9.14187ZM3.49388 9.14187C3.49388 10.7535 4.7351 12.0592 6.26562 12.0592C7.7966 12.0592 9.03735 10.7535 9.03735 9.14187C9.03735 7.531 7.79661 6.22477 6.26562 6.22477C4.73509 6.22477 3.49388 7.53099 3.49388 9.14187ZM6.26562 11.8167C4.86238 11.8167 3.72434 10.6195 3.72434 9.14187C3.72434 7.66492 4.86239 6.4673 6.26562 6.4673C7.66929 6.4673 8.80689 7.66491 8.80689 9.14187C8.80689 10.6196 7.6693 11.8167 6.26562 11.8167Z" fill="white"/>
<path d="M63.5735 22.124C62.1062 22.124 60.9165 20.8726 60.9165 19.3279C60.9165 17.784 62.1062 16.5321 63.5735 16.5321C65.0404 16.5321 66.2296 17.784 66.2296 19.3279C66.2296 20.8726 65.0404 22.124 63.5735 22.124ZM63.5735 15.0272C61.3157 15.0272 59.4861 16.9533 59.4861 19.3279C59.4861 21.7039 61.3157 23.6298 63.5735 23.6298C65.8304 23.6298 67.66 21.7039 67.66 19.3279C67.66 16.9533 65.8304 15.0272 63.5735 15.0272Z" fill="white"/>
<path fill-rule="evenodd" clip-rule="evenodd" d="M63.5735 23.5086C61.3793 23.5086 59.6012 21.637 59.6012 19.3279C59.6012 17.0203 61.3793 15.1485 63.5735 15.1485C65.7667 15.1485 67.5447 17.0203 67.5447 19.3279C67.5447 21.637 65.7667 23.5086 63.5735 23.5086ZM59.3708 19.3279C59.3708 21.7709 61.252 23.7511 63.5735 23.7511C65.894 23.7511 67.7752 21.7709 67.7752 19.3279C67.7752 16.8864 65.894 14.9059 63.5735 14.9059C61.252 14.9059 59.3708 16.8864 59.3708 19.3279ZM60.8013 19.3279C60.8013 20.9395 62.0425 22.2453 63.5735 22.2453C65.104 22.2453 66.3447 20.9395 66.3447 19.3279C66.3447 17.7171 65.104 16.4108 63.5735 16.4108C62.0425 16.4108 60.8013 17.717 60.8013 19.3279ZM63.5735 22.0027C62.1697 22.0027 61.0317 20.8056 61.0317 19.3279C61.0317 17.851 62.1697 16.6533 63.5735 16.6533C64.9767 16.6533 66.1143 17.8509 66.1143 19.3279C66.1143 20.8056 64.9767 22.0027 63.5735 22.0027Z" fill="white"/>
<path d="M80.1664 45.8915C78.699 45.8915 77.5094 44.6401 77.5094 43.0954C77.5094 41.5515 78.699 40.2996 80.1664 40.2996C81.6332 40.2996 82.8224 41.5515 82.8224 43.0954C82.8224 44.6401 81.6332 45.8915 80.1664 45.8915ZM80.1664 38.7947C77.9085 38.7947 76.0789 40.7209 76.0789 43.0954C76.0789 45.4715 77.9085 47.3974 80.1664 47.3974C82.4232 47.3974 84.2529 45.4715 84.2529 43.0954C84.2529 40.7209 82.4232 38.7947 80.1664 38.7947Z" fill="white"/>
<path fill-rule="evenodd" clip-rule="evenodd" d="M80.1663 47.2761C77.9722 47.2761 76.1941 45.4045 76.1941 43.0954C76.1941 40.7878 77.9722 38.916 80.1663 38.916C82.3596 38.916 84.1376 40.7878 84.1376 43.0954C84.1376 45.4045 82.3596 47.2761 80.1663 47.2761ZM75.9637 43.0954C75.9637 45.5384 77.8449 47.5186 80.1663 47.5186C82.4869 47.5186 84.3681 45.5384 84.3681 43.0954C84.3681 40.6539 82.4869 38.6735 80.1663 38.6735C77.8449 38.6735 75.9637 40.6539 75.9637 43.0954ZM77.3941 43.0954C77.3941 44.7071 78.6354 46.0128 80.1663 46.0128C81.6969 46.0128 82.9376 44.707 82.9376 43.0954C82.9376 41.4846 81.6969 40.1783 80.1663 40.1783C78.6354 40.1783 77.3941 41.4845 77.3941 43.0954ZM80.1663 45.7703C78.7626 45.7703 77.6246 44.5731 77.6246 43.0954C77.6246 41.6185 78.7626 40.4209 80.1663 40.4209C81.5696 40.4209 82.7072 41.6185 82.7072 43.0954C82.7072 44.5731 81.5696 45.7703 80.1663 45.7703Z" fill="white"/>
<path d="M96.0926 17.6041C94.6252 17.6041 93.4356 16.3527 93.4356 14.808C93.4356 13.2641 94.6252 12.0122 96.0926 12.0122C97.5594 12.0122 98.7486 13.2641 98.7486 14.808C98.7486 16.3527 97.5594 17.6041 96.0926 17.6041ZM96.0926 10.5073C93.8347 10.5073 92.0051 12.4334 92.0051 14.808C92.0051 17.184 93.8347 19.1099 96.0926 19.1099C98.3494 19.1099 100.179 17.184 100.179 14.808C100.179 12.4334 98.3494 10.5073 96.0926 10.5073Z" fill="white"/>
<path fill-rule="evenodd" clip-rule="evenodd" d="M96.0926 18.9887C93.8984 18.9887 92.1204 17.1171 92.1204 14.808C92.1204 12.5004 93.8984 10.6286 96.0926 10.6286C98.2858 10.6286 100.064 12.5004 100.064 14.808C100.064 17.1171 98.2858 18.9887 96.0926 18.9887ZM91.8899 14.808C91.8899 17.251 93.7711 19.2312 96.0926 19.2312C98.4131 19.2312 100.294 17.251 100.294 14.808C100.294 12.3665 98.4131 10.3861 96.0926 10.3861C93.7711 10.3861 91.8899 12.3665 91.8899 14.808ZM93.3204 14.808C93.3204 16.4197 94.5616 17.7254 96.0926 17.7254C97.6231 17.7254 98.8638 16.4196 98.8638 14.808C98.8638 13.1972 97.6231 11.8909 96.0926 11.8909C94.5616 11.8909 93.3204 13.1971 93.3204 14.808ZM96.0926 17.4828C94.6888 17.4828 93.5508 16.2857 93.5508 14.808C93.5508 13.3311 94.6889 12.1334 96.0926 12.1334C97.4958 12.1334 98.6334 13.331 98.6334 14.808C98.6334 16.2857 97.4958 17.4828 96.0926 17.4828Z" fill="white"/>
<path d="M45.9817 60.3621C44.5143 60.3621 43.3247 59.1107 43.3247 57.566C43.3247 56.0221 44.5143 54.7702 45.9817 54.7702C47.4485 54.7702 48.6377 56.0221 48.6377 57.566C48.6377 59.1107 47.4485 60.3621 45.9817 60.3621ZM45.9817 53.2653C43.7243 53.2653 41.8942 55.1914 41.8942 57.566C41.8942 59.942 43.7243 61.8679 45.9817 61.8679C48.2385 61.8679 50.0686 59.942 50.0686 57.566C50.0686 55.1914 48.2385 53.2653 45.9817 53.2653Z" fill="white"/>
<path fill-rule="evenodd" clip-rule="evenodd" d="M45.9817 61.7467C43.7879 61.7467 42.0095 59.8751 42.0095 57.566C42.0095 55.2584 43.7879 53.3866 45.9817 53.3866C48.1749 53.3866 49.9534 55.2584 49.9534 57.566C49.9534 59.8751 48.1749 61.7467 45.9817 61.7467ZM41.779 57.566C41.779 60.009 43.6607 61.9892 45.9817 61.9892C48.3022 61.9892 50.1839 60.009 50.1839 57.566C50.1839 55.1245 48.3022 53.144 45.9817 53.144C43.6607 53.144 41.779 55.1245 41.779 57.566ZM43.2095 57.566C43.2095 59.1776 44.4507 60.4834 45.9817 60.4834C47.5122 60.4834 48.7529 59.1776 48.7529 57.566C48.7529 55.9552 47.5122 54.6489 45.9817 54.6489C44.4507 54.6489 43.2095 55.9551 43.2095 57.566ZM45.9817 60.2408C44.5779 60.2408 43.4399 59.0437 43.4399 57.566C43.4399 56.0891 44.5779 54.8914 45.9817 54.8914C47.3849 54.8914 48.5225 56.089 48.5225 57.566C48.5225 59.0437 47.3849 60.2408 45.9817 60.2408Z" fill="white"/>
<path d="M106.616 19.637H108.87C109.112 19.637 109.309 19.6936 109.462 19.8061C109.614 19.9187 109.728 20.0643 109.804 20.243L113.335 29.0058C113.453 29.2904 113.565 29.6037 113.673 29.945C113.78 30.2855 113.882 30.6451 113.979 31.0224C114.138 30.2612 114.335 29.589 114.571 29.0058L118.091 20.243C118.154 20.0907 118.264 19.9517 118.424 19.826C118.583 19.7002 118.78 19.637 119.016 19.637H121.269L115.204 34.0031H112.681L106.616 19.637Z" fill="white"/>
<path d="M136.71 26.8201C136.71 27.8732 136.527 28.8484 136.16 29.7456C135.793 30.6436 135.277 31.4202 134.613 32.0755C133.948 32.7315 133.149 33.2434 132.213 33.6104C131.279 33.9781 130.244 34.162 129.108 34.162C127.973 34.162 126.936 33.9781 125.999 33.6104C125.06 33.2434 124.257 32.7315 123.589 32.0755C122.921 31.4202 122.404 30.6436 122.037 29.7456C121.669 28.8484 121.486 27.8732 121.486 26.8201C121.486 25.7669 121.669 24.7917 122.037 23.8945C122.404 22.9965 122.921 22.2199 123.589 21.5646C124.257 20.9086 125.06 20.3967 125.999 20.0297C126.936 19.662 127.973 19.4781 129.108 19.4781C130.244 19.4781 131.279 19.6635 132.213 20.0341C133.149 20.4055 133.948 20.9167 134.613 21.5697C135.277 22.2221 135.793 22.9965 136.16 23.8945C136.527 24.7917 136.71 25.7669 136.71 26.8201ZM133.844 26.8201C133.844 26.0317 133.735 25.3249 133.517 24.699C133.299 24.0732 132.986 23.5414 132.577 23.1046C132.169 22.667 131.672 22.3324 131.087 22.1007C130.502 21.8691 129.842 21.7529 129.108 21.7529C128.375 21.7529 127.714 21.8691 127.125 22.1007C126.537 22.3324 126.036 22.667 125.625 23.1046C125.212 23.5414 124.896 24.0732 124.674 24.699C124.453 25.3249 124.342 26.0317 124.342 26.8201C124.342 27.6084 124.453 28.3152 124.674 28.9411C124.896 29.5669 125.212 30.0972 125.625 30.5311C126.036 30.965 126.537 31.2974 127.125 31.5291C127.714 31.7608 128.375 31.877 129.108 31.877C129.842 31.877 130.502 31.7608 131.087 31.5291C131.672 31.2974 132.169 30.965 132.577 30.5311C132.986 30.0972 133.299 29.5669 133.517 28.9411C133.735 28.3152 133.844 27.6084 133.844 26.8201Z" fill="white"/>
<path d="M144.832 28.4196V34.0031H142.039V28.4196L136.566 19.637H139.027C139.269 19.637 139.461 19.6936 139.603 19.8061C139.745 19.9187 139.865 20.0606 139.962 20.2334L142.714 25.0315C142.872 25.3168 143.011 25.5867 143.129 25.8412C143.246 26.0964 143.354 26.3464 143.451 26.5913C143.54 26.3398 143.643 26.0868 143.757 25.8316C143.871 25.5764 144.008 25.3102 144.167 25.0315L146.898 20.2334C146.975 20.0871 147.089 19.9517 147.241 19.826C147.393 19.7002 147.588 19.637 147.823 19.637H150.294L144.832 28.4196Z" fill="white"/>
<path d="M163.227 34.0031H161.067C160.825 34.0031 160.626 33.945 160.47 33.8296C160.314 33.7134 160.202 33.5692 160.133 33.3971L159.011 30.4664H152.791L151.669 33.3971C151.614 33.5494 151.505 33.6884 151.342 33.8141C151.179 33.9399 150.98 34.0031 150.744 34.0031H148.574L154.473 19.637H157.329L163.227 34.0031ZM153.507 28.5785H158.295L156.466 23.7996C156.383 23.5878 156.292 23.3377 156.191 23.0494C156.091 22.7619 155.993 22.4486 155.896 22.111C155.798 22.4486 155.703 22.7633 155.61 23.0546C155.517 23.3458 155.425 23.601 155.334 23.8194L153.507 28.5785Z" fill="white"/>
<path d="M171.186 32.0358C171.817 32.0358 172.365 31.9814 172.832 31.8718C173.3 31.763 173.745 31.6122 174.167 31.4202V28.8072H172.287C172.108 28.8072 171.966 28.7594 171.862 28.6631C171.757 28.5667 171.706 28.4491 171.706 28.3101V26.8002H176.701V32.6124C176.32 32.8772 175.924 33.1074 175.512 33.303C175.1 33.4979 174.66 33.6589 174.193 33.7847C173.725 33.9105 173.226 34.0046 172.692 34.0678C172.159 34.1304 171.585 34.162 170.968 34.162C169.875 34.162 168.867 33.9796 167.947 33.6155C167.025 33.2515 166.229 32.7448 165.558 32.0954C164.886 31.4467 164.362 30.6716 163.985 29.7706C163.607 28.8697 163.419 27.8864 163.419 26.8201C163.419 25.7404 163.602 24.7505 163.969 23.8496C164.336 22.9487 164.857 22.1735 165.532 21.5249C166.207 20.8755 167.025 20.3724 167.988 20.0143C168.95 19.6568 170.031 19.4781 171.228 19.4781C172.453 19.4781 173.514 19.6517 174.411 19.9996C175.308 20.3474 176.067 20.7997 176.691 21.3557L175.881 22.5677C175.721 22.8126 175.51 22.9354 175.247 22.9354C175.081 22.9354 174.911 22.8825 174.738 22.7766C174.517 22.6508 174.29 22.5251 174.058 22.3993C173.826 22.2728 173.57 22.164 173.289 22.0713C173.009 21.9786 172.694 21.9021 172.344 21.8426C171.995 21.783 171.592 21.7529 171.135 21.7529C170.394 21.7529 169.724 21.8727 169.125 22.111C168.527 22.3493 168.016 22.6905 167.594 23.134C167.171 23.5782 166.846 24.1114 166.617 24.7336C166.389 25.3565 166.274 26.0515 166.274 26.8201C166.274 27.6482 166.396 28.3851 166.638 29.0308C166.88 29.6765 167.22 30.2215 167.656 30.6649C168.092 31.1084 168.611 31.4482 169.214 31.6835C169.816 31.9181 170.474 32.0358 171.186 32.0358Z" fill="white"/>
<path d="M188.777 19.637V21.7631H182.12V25.747H187.364V27.8033H182.12V31.8674H188.777V34.0031H179.306V19.637H188.777Z" fill="white"/>
<path d="M114.089 46.7756C114.157 46.7756 114.217 46.802 114.273 46.855L114.755 47.3588C114.382 47.7713 113.931 48.0935 113.4 48.3237C112.869 48.5546 112.229 48.6701 111.48 48.6701C110.824 48.6701 110.23 48.5619 109.697 48.345C109.164 48.1288 108.709 47.825 108.332 47.4345C107.956 47.044 107.664 46.5755 107.457 46.0291C107.249 45.4826 107.146 44.8818 107.146 44.2258C107.146 43.5698 107.257 42.9689 107.479 42.4225C107.701 41.876 108.013 41.4068 108.415 41.0141C108.817 40.6214 109.298 40.3169 109.859 40.0999C110.419 39.8837 111.038 39.7756 111.715 39.7756C112.384 39.7756 112.96 39.8749 113.444 40.0727C113.929 40.2713 114.359 40.5405 114.736 40.8802L114.336 41.4208C114.306 41.4612 114.273 41.4943 114.235 41.5208C114.196 41.5473 114.141 41.5605 114.069 41.5605C114.015 41.5605 113.957 41.5414 113.895 41.5024C113.834 41.4642 113.761 41.4164 113.676 41.3598C113.591 41.3031 113.492 41.2428 113.378 41.1781C113.263 41.1134 113.128 41.0523 112.971 40.9957C112.815 40.9391 112.633 40.8913 112.425 40.853C112.219 40.8148 111.98 40.7957 111.708 40.7957C111.222 40.7957 110.777 40.8751 110.373 41.0354C109.969 41.195 109.621 41.423 109.329 41.7179C109.037 42.0136 108.81 42.3739 108.647 42.799C108.484 43.2241 108.402 43.6999 108.402 44.2258C108.402 44.7678 108.484 45.2517 108.647 45.6768C108.81 46.1019 109.032 46.4608 109.313 46.7542C109.594 47.0477 109.928 47.2712 110.313 47.4257C110.697 47.5794 111.112 47.6559 111.556 47.6559C111.827 47.6559 112.07 47.6412 112.286 47.6103C112.502 47.5801 112.702 47.5323 112.886 47.4676C113.07 47.4029 113.241 47.3213 113.4 47.222C113.558 47.1227 113.718 47.0043 113.879 46.8667C113.951 46.8064 114.021 46.7756 114.089 46.7756Z" fill="white"/>
<path d="M124.82 44.2258C124.82 44.8774 124.712 45.4753 124.497 46.0195C124.281 46.5645 123.976 47.033 123.583 47.4257C123.189 47.8177 122.716 48.1229 122.164 48.3391C121.612 48.5561 121.002 48.6642 120.333 48.6642C119.665 48.6642 119.056 48.5561 118.506 48.3391C117.956 48.1229 117.484 47.8177 117.09 47.4257C116.697 47.033 116.392 46.5645 116.176 46.0195C115.961 45.4753 115.853 44.8774 115.853 44.2258C115.853 43.5742 115.961 42.9763 116.176 42.432C116.392 41.8871 116.697 41.4179 117.09 41.0229C117.484 40.6287 117.956 40.322 118.506 40.1036C119.056 39.8845 119.665 39.7756 120.333 39.7756C121.002 39.7756 121.612 39.8845 122.164 40.1036C122.716 40.322 123.189 40.6287 123.583 41.0229C123.976 41.4179 124.281 41.8871 124.497 42.432C124.712 42.9763 124.82 43.5742 124.82 44.2258ZM123.558 44.2258C123.558 43.6918 123.481 43.2116 123.329 42.7865C123.177 42.3622 122.961 42.0025 122.681 41.7091C122.402 41.4157 122.063 41.1899 121.666 41.0325C121.268 40.8744 120.824 40.7957 120.333 40.7957C119.847 40.7957 119.405 40.8744 119.007 41.0325C118.609 41.1899 118.27 41.4157 117.988 41.7091C117.707 42.0025 117.49 42.3622 117.338 42.7865C117.185 43.2116 117.109 43.6918 117.109 44.2258C117.109 44.7597 117.185 45.2385 117.338 45.6614C117.49 46.085 117.707 46.4431 117.988 46.7366C118.27 47.03 118.609 47.2543 119.007 47.4102C119.405 47.5662 119.847 47.6441 120.333 47.6441C120.824 47.6441 121.268 47.5662 121.666 47.4102C122.063 47.2543 122.402 47.03 122.681 46.7366C122.961 46.4431 123.177 46.085 123.329 45.6614C123.481 45.2385 123.558 44.7597 123.558 44.2258Z" fill="white"/>
<path d="M127.136 39.8727C127.247 39.8727 127.328 39.8859 127.381 39.9124C127.434 39.9382 127.494 39.9918 127.562 40.0727L132.829 46.6299C132.817 46.5248 132.808 46.4226 132.804 46.3233C132.8 46.224 132.797 46.1284 132.797 46.035V39.8727H133.876V48.573H133.254C133.157 48.573 133.076 48.5568 133.01 48.5244C132.945 48.4921 132.88 48.4377 132.817 48.3604L127.556 41.8091C127.564 41.9106 127.57 42.0099 127.575 42.107C127.579 42.2041 127.581 42.293 127.581 42.3739V48.573H126.502V39.8727H127.136Z" fill="white"/>
<path d="M142.292 39.8727V40.8619H139.353V48.573H138.122V40.8619H135.171V39.8727H142.292Z" fill="white"/>
<path d="M144.938 44.9421V48.573H143.713V39.8727H146.284C146.859 39.8727 147.356 39.9286 147.775 40.0396C148.193 40.1507 148.539 40.3118 148.812 40.5221C149.085 40.7324 149.287 40.9869 149.419 41.284C149.549 41.5819 149.615 41.9143 149.615 42.2827C149.615 42.5909 149.564 42.8777 149.463 43.1454C149.361 43.4124 149.215 43.6521 149.022 43.8647C148.829 44.0772 148.595 44.2581 148.317 44.4082C148.04 44.5575 147.726 44.6707 147.375 44.748C147.527 44.8333 147.662 44.9561 147.781 45.1186L150.434 48.573H149.342C149.118 48.573 148.953 48.4899 148.847 48.3237L146.486 45.2157C146.414 45.1186 146.336 45.0487 146.251 45.0061C146.167 44.9634 146.04 44.9421 145.871 44.9421H144.938ZM144.938 44.0861H146.226C146.585 44.0861 146.902 44.0449 147.175 43.9618C147.448 43.8787 147.676 43.761 147.86 43.6095C148.045 43.458 148.183 43.2763 148.276 43.066C148.369 42.8557 148.416 42.6233 148.416 42.3681C148.416 41.8496 148.237 41.459 147.879 41.1965C147.522 40.9332 146.99 40.8016 146.284 40.8016H144.938V44.0861Z" fill="white"/>
<path d="M159.942 44.2258C159.942 44.8774 159.834 45.4753 159.618 46.0195C159.402 46.5645 159.098 47.033 158.704 47.4257C158.311 47.8177 157.838 48.1229 157.286 48.3391C156.733 48.5561 156.123 48.6642 155.455 48.6642C154.786 48.6642 154.177 48.5561 153.627 48.3391C153.077 48.1229 152.605 47.8177 152.212 47.4257C151.818 47.033 151.514 46.5645 151.298 46.0195C151.083 45.4753 150.974 44.8774 150.974 44.2258C150.974 43.5742 151.083 42.9763 151.298 42.432C151.514 41.8871 151.818 41.4179 152.212 41.0229C152.605 40.6287 153.077 40.322 153.627 40.1036C154.177 39.8845 154.786 39.7756 155.455 39.7756C156.123 39.7756 156.733 39.8845 157.286 40.1036C157.838 40.322 158.311 40.6287 158.704 41.0229C159.098 41.4179 159.402 41.8871 159.618 42.432C159.834 42.9763 159.942 43.5742 159.942 44.2258ZM158.678 44.2258C158.678 43.6918 158.602 43.2116 158.451 42.7865C158.298 42.3622 158.082 42.0025 157.803 41.7091C157.524 41.4157 157.185 41.1899 156.787 41.0325C156.39 40.8744 155.946 40.7957 155.455 40.7957C154.968 40.7957 154.526 40.8744 154.128 41.0325C153.73 41.1899 153.391 41.4157 153.11 41.7091C152.828 42.0025 152.612 42.3622 152.459 42.7865C152.307 43.2116 152.231 43.6918 152.231 44.2258C152.231 44.7597 152.307 45.2385 152.459 45.6614C152.612 46.085 152.828 46.4431 153.11 46.7366C153.391 47.03 153.73 47.2543 154.128 47.4102C154.526 47.5662 154.968 47.6441 155.455 47.6441C155.946 47.6441 156.39 47.5662 156.787 47.4102C157.185 47.2543 157.524 47.03 157.803 46.7366C158.082 46.4431 158.298 46.085 158.451 45.6614C158.602 45.2385 158.678 44.7597 158.678 44.2258Z" fill="white"/>
<path d="M162.855 47.5831H166.789V48.573H161.623V39.8727H162.855V47.5831Z" fill="white"/>
</svg>
